<?xml version="1.0" encoding="UTF-8" standalone="no"?>
<svg
   width="96"
   height="96"
   viewBox="0 0 96 96"
   role="img"
   aria-labelledby="title"
   version="1.1"
   id="svg9"
   sodipodi:docname="A-dev-logo.svg"
   xmlns:inkscape="http://www.inkscape.org/namespaces/inkscape"
   xmlns:sodipodi="http://sodipodi.sourceforge.net/DTD/sodipodi-0.dtd"
   xmlns="http://www.w3.org/2000/svg"
   xmlns:svg="http://www.w3.org/2000/svg">
  <defs
     id="defs13" />
  <sodipodi:namedview
     id="namedview11"
     pagecolor="#ffffff"
     bordercolor="#000000"
     borderopacity="0.25"
     inkscape:showpageshadow="2"
     inkscape:pageopacity="0.0"
     inkscape:pagecheckerboard="0"
     inkscape:deskcolor="#d1d1d1" />
  <title
     id="title">A.dev</title>
  <rect
     width="96"
     height="96"
     rx="22"
     fill="#020817"
     id="rect3" />
  <g
     aria-label="A.dev"
     id="text7"
     style="font-weight:700;font-size:27px;font-family:'Nimbus Sans', Arial, sans-serif;letter-spacing:-1.1;text-anchor:middle;fill:#f8fafc">
    <path
       d="m 27.209501,53.031 1.296,3.969 h 4.158 l -6.804,-19.683 h -4.482 L 14.384501,57 h 4.131 l 1.323,-3.969 z m -1.107,-3.375 h -5.13 l 2.565,-7.695 z"
       id="path15" />
    <path
       d="m 37.854504,53.058 h -4.05 V 57 h 4.05 z"
       style="fill:#34d399"
       id="path17" />
    <path
       d="m 49.4175,57 h 3.78 V 37.317 h -3.78 v 6.993 c -0.945,-1.458 -2.187,-2.133 -4.023,-2.133 -3.483,0 -6.129,3.348 -6.129,7.749 0,1.971 0.594,3.969 1.566,5.373 0.999,1.431 2.781,2.322 4.563,2.322 1.836,0 3.078,-0.648 4.023,-2.106 z m -3.186,-11.664 c 1.917,0 3.186,1.836 3.186,4.644 0,2.646 -1.296,4.482 -3.186,4.482 -1.89,0 -3.186,-1.863 -3.186,-4.536 0,-2.727 1.296,-4.59 3.186,-4.59 z"
       id="path19" />
    <path
       d="m 68.027503,50.898 c 0.027,-0.324 0.027,-0.459 0.027,-0.648 0,-1.458 -0.216,-2.808 -0.567,-3.834 -0.972,-2.646 -3.321,-4.239 -6.264,-4.239 -4.185,0 -6.75,3.024 -6.75,7.911 0,4.671 2.538,7.533 6.669,7.533 3.267,0 5.913,-1.836 6.75,-4.725 h -3.726 c -0.459,1.161 -1.512,1.836 -2.889,1.836 -1.08,0 -1.944,-0.459 -2.484,-1.269 -0.351,-0.54 -0.486,-1.188 -0.54,-2.565 z m -9.72,-2.511 c 0.243,-2.241 1.188,-3.321 2.862,-3.321 1.728,0 2.754,1.161 2.943,3.321 z"
       id="path21" />
    <path
       d="m 76.755506,57 5.022,-14.58 h -3.996 l -2.943,10.665 -3.159,-10.665 h -3.996 l 5.103,14.58 z"
       id="path23" />
  </g>
</svg>
